<?xml version="1.0" standalone="no"?>
<!DOCTYPE svg PUBLIC "-//W3C//DTD SVG 20010904//EN"
 "http://www.w3.org/TR/2001/REC-SVG-20010904/DTD/svg10.dtd">
<svg version="1.0" xmlns="http://www.w3.org/2000/svg"
 width="1254.000000pt" height="1254.000000pt" viewBox="0 0 1254.000000 1254.000000"
 preserveAspectRatio="xMidYMid meet">

<g transform="translate(0.000000,1254.000000) scale(0.100000,-0.100000)"
fill="#000000" stroke="none">
<path d="M6076 9140 c-107 -17 -204 -49 -424 -139 -119 -49 -273 -111 -342
-139 -337 -135 -997 -402 -1205 -487 -263 -108 -800 -326 -915 -372 -63 -25
-134 -59 -157 -75 -153 -105 -164 -320 -23 -441 42 -36 123 -73 505 -232 127
-53 259 -109 295 -124 36 -16 137 -59 225 -96 88 -36 225 -95 305 -130 80 -35
289 -125 465 -200 268 -115 656 -283 1019 -441 174 -76 360 -105 548 -84 61 6
143 21 182 32 39 10 391 156 782 324 391 167 716 304 721 304 5 0 15 -55 22
-122 7 -67 19 -135 27 -151 27 -51 60 -57 307 -57 212 0 226 1 251 21 14 11
31 30 38 42 11 21 57 434 58 524 0 49 -42 26 404 218 263 113 304 134 345 174
60 59 84 110 89 191 3 58 0 72 -30 130 -49 95 -89 120 -370 234 -356 145 -328
130 -328 174 0 20 7 107 15 192 14 142 14 158 -1 192 -30 66 -41 68 -485 68
-435 0 -440 -1 -475 -66 -10 -18 -21 -34 -24 -34 -10 0 -566 228 -940 385
-285 120 -328 137 -420 161 -78 21 -124 26 -250 29 -85 2 -182 0 -214 -5z
m321 -564 c37 -8 118 -36 178 -61 61 -26 175 -73 255 -105 80 -32 260 -106
400 -165 140 -58 361 -149 490 -202 129 -53 236 -97 238 -99 5 -3 53 -487 50
-502 -2 -7 -37 -28 -78 -47 -66 -29 -848 -376 -1310 -580 -183 -81 -214 -91
-315 -101 -157 -14 -188 -4 -895 304 -228 100 -617 268 -865 374 -406 175
-452 196 -472 227 -29 43 -29 89 0 132 24 35 34 40 557 244 304 119 743 292
1095 432 187 75 363 142 390 149 69 17 200 17 282 0z m2417 -2 c12 -15 -1
-172 -79 -964 -14 -146 -34 -364 -45 -485 -33 -373 -49 -518 -60 -529 -7 -7
-88 -11 -226 -11 -193 0 -217 2 -228 17 -13 18 -17 56 -61 533 -14 149 -36
385 -50 525 -14 140 -36 381 -50 535 -14 154 -27 297 -31 317 -3 20 -1 46 6
57 11 21 16 21 412 21 352 0 402 -2 412 -16z"/>
<path d="M3791 6503 c-24 -9 -63 -35 -86 -58 -79 -78 -75 -22 -75 -1063 0
-697 3 -935 12 -966 19 -64 100 -140 167 -156 140 -33 273 42 311 178 6 24 10
276 10 688 0 634 1 651 20 669 32 29 -3 43 765 -298 143 -63 391 -174 550
-247 445 -203 519 -224 780 -224 127 0 192 5 255 18 179 38 239 61 640 248 77
36 391 180 670 308 58 26 142 64 188 84 l83 37 34 -30 c51 -45 114 -79 175
-94 l55 -14 5 -579 c6 -638 2 -606 69 -677 94 -102 277 -99 366 6 68 79 66 53
63 968 l-3 824 -23 57 c-68 169 -235 275 -420 267 -74 -4 -85 -8 -277 -100
-110 -53 -276 -132 -370 -174 -93 -42 -199 -90 -235 -107 -36 -16 -110 -50
-165 -75 -55 -25 -206 -94 -335 -153 -129 -59 -284 -130 -345 -158 -330 -150
-522 -147 -886 14 -375 165 -1230 546 -1569 699 -118 54 -231 103 -250 111
-46 17 -124 16 -179 -3z m4762 -198 c220 -109 256 -401 71 -564 -61 -54 -136
-81 -224 -81 -136 0 -242 66 -302 188 -66 133 -36 295 72 396 43 40 104 76
155 89 11 3 54 5 95 3 60 -1 87 -8 133 -31z"/>
<path d="M3790 4007 c-19 -6 -55 -32 -81 -57 -111 -107 -99 -279 25 -365 53
-36 355 -177 531 -247 341 -136 765 -253 1135 -312 254 -41 449 -58 742 -63
417 -8 745 19 1119 92 159 32 249 53 464 110 141 37 456 148 620 218 372 159
431 194 478 282 30 56 30 164 0 221 -63 118 -198 167 -303 109 -229 -126 -570
-256 -905 -345 -778 -207 -1655 -230 -2450 -64 -391 81 -803 218 -1100 364
-152 75 -192 83 -275 57z"/>
</g>
</svg>
